<svg xmlns="http://www.w3.org/2000/svg" width="20" height="20" viewBox="0 0 22 16" class="icon" data-astro-cid-7kdedvnl="" data-icon="youtube">  <symbol id="ai:local:youtube"><path fill="currentcolor" d="M10.994.524s-6.508 0-8.142.435c-.874.25-1.594.99-1.839 1.9C.59 4.536.59 8.007.59 8.007s0 3.484.424 5.134c.245.91.952 1.636 1.84 1.887 1.646.448 8.14.448 8.14.448s6.521 0 8.155-.435a2.623 2.623 0 0 0 1.826-1.887c.437-1.663.437-5.134.437-5.134s.013-3.484-.437-5.16A2.605 2.605 0 0 0 19.148.984c-1.634-.46-8.154-.46-8.154-.46zM8.923 4.8l5.415 3.207L8.923 11.2V4.8z"/></symbol><use xmlns:xlink="http://www.w3.org/1999/xlink" xlink:href="#ai:local:youtube"/>  </svg>