<svg xmlns="http://www.w3.org/2000/svg" width="373" height="169" fill="none" viewBox="0 0 373 169" data-astro-cid-hpyyxts7=""> <mask id="a" fill="#fff" data-astro-cid-hpyyxts7=""> <path fill-rule="evenodd" d="M105 9H38v16h67V9Zm0 19H38v15h67V28ZM38 60V45h67v15H38Zm0 3v15h67V63H38Zm0 33V81h67v15H38Zm0 3v15h67V99H38Zm0 32v-15h67v15H38Zm0 3v17h67v-17H38Z" clip-rule="evenodd" data-astro-cid-hpyyxts7=""/> </mask> <path class="pull-shape" style="--pull: -35%" fill="#14D8D4" d="M38 9V8h-1v1h1Zm67 0h1V8h-1v1ZM38 25h-1v1h1v-1Zm67 0v1h1v-1h-1Zm-67 3v-1h-1v1h1Zm67 0h1v-1h-1v1ZM38 43h-1v1h1v-1Zm67 0v1h1v-1h-1Zm-67 2v-1h-1v1h1Zm0 15h-1v1h1v-1Zm67-15h1v-1h-1v1Zm0 15v1h1v-1h-1ZM38 78h-1v1h1v-1Zm0-15v-1h-1v1h1Zm67 15v1h1v-1h-1Zm0-15h1v-1h-1v1ZM38 81v-1h-1v1h1Zm0 15h-1v1h1v-1Zm67-15h1v-1h-1v1Zm0 15v1h1v-1h-1Zm-67 18h-1v1h1v-1Zm0-15v-1h-1v1h1Zm67 15v1h1v-1h-1Zm0-15h1v-1h-1v1Zm-67 17v-1h-1v1h1Zm0 15h-1v1h1v-1Zm67-15h1v-1h-1v1Zm0 15v1h1v-1h-1Zm-67 3v-1h-1v1h1Zm0 17h-1v1h1v-1Zm67 0v1h1v-1h-1Zm0-17h1v-1h-1v1ZM38 10h67V8H38v2Zm1 15V9h-2v16h2Zm66-1H38v2h67v-2Zm-1-15v16h2V9h-2ZM38 29h67v-2H38v2Zm1 14V28h-2v15h2Zm66-1H38v2h67v-2Zm-1-14v15h2V28h-2ZM37 45v15h2V45h-2Zm68-1H38v2h67v-2Zm1 16V45h-2v15h2Zm-68 1h67v-2H38v2Zm1 17V63h-2v15h2Zm66-1H38v2h67v-2Zm-1-14v15h2V63h-2Zm-66 1h67v-2H38v2Zm-1 17v15h2V81h-2Zm68-1H38v2h67v-2Zm1 16V81h-2v15h2Zm-68 1h67v-2H38v2Zm1 17V99h-2v15h2Zm66-1H38v2h67v-2Zm-1-14v15h2V99h-2Zm-66 1h67v-2H38v2Zm-1 16v15h2v-15h-2Zm68-1H38v2h67v-2Zm1 16v-15h-2v15h2Zm-68 1h67v-2H38v2Zm-1 2v17h2v-17h-2Zm1 18h67v-2H38v2Zm68-1v-17h-2v17h2Zm-1-18H38v2h67v-2Z" mask="url(#a)" data-astro-cid-hpyyxts7=""/> <path stroke="#14D8D4" d="M338 157c6 6 16 6 22 0 7-6 7-16 1-22l-70-70c-6-6-16-6-22 0s-7 16 0 23l69 69Z" data-astro-cid-hpyyxts7=""/> <circle cx="177.6" cy="123.1" r="5" stroke="#14D8D4" data-astro-cid-hpyyxts7=""/> <path fill="#14D8D4" fill-rule="evenodd" d="M6 85a4 4 0 0 0 0 9v1a5 5 0 0 1 0-11v1Zm5 4Z" clip-rule="evenodd" data-astro-cid-hpyyxts7=""/> <g class="pull-shape" style="--pull: -35%" data-astro-cid-hpyyxts7=""> <path stroke="#14D8D4" d="m224 47-46 46-46-46 46-45z" data-astro-cid-hpyyxts7=""/> <path stroke="#14D8D4" d="m206 47-28 28-27-28 27-27z" data-astro-cid-hpyyxts7=""/> </g> </svg>