<svg xmlns="http://www.w3.org/2000/svg" width="0.88em" height="1em" viewBox="0 0 448 512" class="icon is-active" data-astro-cid-bthvj2cz="" data-icon="lambda">  <symbol id="ai:local:lambda"><path fill="currentcolor" d="M32 32C14.3 32 0 46.3 0 64s14.3 32 32 32h108.2l16.4 32.7L18.8 434.9c-7.3 16.1-.1 35.1 16 42.3s35.1.1 42.3-16l116.4-258.6 121 242c10.8 21.7 33 35.4 57.2 35.4H416c17.7 0 32-14.3 32-32s-14.3-32-32-32h-44.2L197.5 67.4c-10.9-21.7-33-35.4-57.3-35.4H32z"/></symbol><use xmlns:xlink="http://www.w3.org/1999/xlink" xlink:href="#ai:local:lambda"/>  </svg>