<svg xmlns="http://www.w3.org/2000/svg" viewBox="0 0 149 19" height="19" width="149">
<path d="M15.0633 0.27124L15.0229 0.411542C14.9393 0.717542 13.1053 7.31171 12.7143 8.97387L10.3841 0.27124H3.71443L0.863647 17.5648H6.9347L7.98915 10.6188C8.03489 10.1552 8.07278 9.68031 8.10506 9.21132C8.18062 9.72346 8.30461 10.227 8.43689 10.7448L10.713 17.5648H14.5644L17.0915 10.3212C17.2155 9.96362 17.3072 9.58612 17.3935 9.18839L18.4804 17.5646H24.5566L21.6577 0.27124H15.0633ZM114.523 9.4399C114.523 10.6558 114.763 12.7356 112.978 12.7356C111.284 12.7356 111.424 10.6558 111.424 9.44014V0.27124H104.862V10.8991C104.862 15.6536 107.745 18.2712 112.98 18.2712C118.213 18.2712 121.093 15.6536 121.093 10.8991V0.27124H114.526V9.44014L114.523 9.4399ZM125.621 0.27124V6.2502H129.311V17.5646H135.878V6.2502H139.565V0.27124H125.621ZM91.5986 0.273953L91.5582 0.414007C91.4746 0.717295 89.6406 7.32009 89.2496 8.9793L86.9192 0.273953H80.2524L77.3989 17.5729H83.4725L84.5271 10.6244C84.5729 10.1636 84.6107 9.68869 84.643 9.21404C84.7186 9.72025 84.8372 10.2122 84.9749 10.7502L87.251 17.5729H91.0997L93.6268 10.3266C93.7507 9.96634 93.8424 9.58858 93.9288 9.19382L95.0184 17.5729H101.092L98.1954 0.273953H91.5986ZM33.2624 0.27124L27.7549 17.5646H33.8556L34.476 15.4647H39.9428L40.5307 17.5646H46.9306L41.2858 0.27124H33.2624ZM38.7722 11.2424H35.6652L37.2456 5.67223L38.7722 11.2424ZM64.3338 0.273953L64.2934 0.414007C64.2098 0.717295 62.3731 7.32009 61.9847 8.9793L59.6519 0.273953H52.9849L50.1314 17.5729H56.2025L57.2569 10.6244C57.3026 10.1636 57.3405 9.68598 57.3728 9.21404C57.4484 9.72025 57.567 10.2122 57.7046 10.7502L59.9808 17.5729H63.8322L66.3592 10.3236C66.4805 9.96609 66.5722 9.59721 66.6586 9.19382L67.7482 17.5729H73.819L70.9306 0.273953H64.3338ZM145.659 3.08343C146.042 3.08343 146.379 3.04324 146.379 2.56562C146.379 2.16519 146.01 2.11932 145.705 2.11932H145.09V3.08343H145.659ZM145.09 4.95445H144.577V1.65872H145.756C146.508 1.65872 146.889 1.93612 146.889 2.60557C146.889 3.20056 146.544 3.4496 146.08 3.5068L146.951 4.9542H146.374L145.573 3.54379H145.093V4.9542L145.09 4.95445ZM145.646 0.789048C144.429 0.789048 143.483 1.80173 143.483 3.24938C143.483 4.60234 144.311 5.70675 145.646 5.70675C146.846 5.70675 147.792 4.70565 147.792 3.24938C147.792 1.80198 146.846 0.789048 145.646 0.789048ZM145.646 6.22727C144.03 6.22727 142.881 4.94582 142.881 3.24938C142.881 1.4585 144.157 0.27124 145.646 0.27124C147.115 0.27124 148.391 1.4585 148.391 3.24938C148.391 5.04025 147.115 6.22727 145.646 6.22727Z"></path>
</svg>
