<svg width="283" height="401" viewBox="0 0 283 401" fill="none" xmlns="http://www.w3.org/2000/svg" data-astro-cid-hpyyxts7=""> <g class="pull-shape" style="--pull: -25%" data-astro-cid-hpyyxts7=""> <path d="M112.464 231.008L192.458 231.008C192.193 253.151 174.382 271.008 152.461 271.008C130.54 271.008 112.728 253.151 112.464 231.008Z" stroke="#14D8D4" data-astro-cid-hpyyxts7=""/> </g> <mask id="path-2-inside-1_307_351" fill="white" data-astro-cid-hpyyxts7=""> <path fill-rule="evenodd" clip-rule="evenodd" d="M192.961 328.508H72.9609L72.9609 400.508H92.9609C92.9609 378.417 110.87 360.508 132.961 360.508C155.052 360.508 172.961 378.417 172.961 400.508H192.961V328.508Z" data-astro-cid-hpyyxts7=""/> </mask> <path class="pull-shape" style="--pull: -5%" d="M72.9609 328.508V327.508H71.9609V328.508H72.9609ZM192.961 328.508H193.961V327.508H192.961V328.508ZM72.9609 400.508H71.9609V401.508H72.9609V400.508ZM92.9609 400.508L92.9609 401.508H93.9609L93.9609 400.508H92.9609ZM172.961 400.508H171.961V401.508H172.961V400.508ZM192.961 400.508V401.508H193.961V400.508H192.961ZM72.9609 329.508H192.961V327.508H72.9609V329.508ZM73.9609 400.508L73.9609 328.508H71.9609L71.9609 400.508H73.9609ZM92.9609 399.508H72.9609V401.508H92.9609L92.9609 399.508ZM132.961 359.508C110.317 359.508 91.9609 377.864 91.9609 400.508H93.9609C93.9609 378.969 111.422 361.508 132.961 361.508V359.508ZM173.961 400.508C173.961 377.864 155.605 359.508 132.961 359.508V361.508C154.5 361.508 171.961 378.969 171.961 400.508H173.961ZM192.961 399.508H172.961V401.508H192.961V399.508ZM191.961 328.508V400.508H193.961V328.508H191.961Z" fill="#14D8D4" mask="url(#path-2-inside-1_307_351)" data-astro-cid-hpyyxts7=""/> <circle cx="193.961" cy="287.508" r="4.5" stroke="#14D8D4" data-astro-cid-hpyyxts7=""/> <path class="pull-shape" style="--pull: -15%" fill-rule="evenodd" clip-rule="evenodd" d="M228.961 191.508C228.961 191.508 228.961 191.508 228.961 191.508C228.961 189.299 227.17 187.508 224.961 187.508C222.752 187.508 220.961 189.299 220.961 191.508C220.961 191.508 220.961 191.508 220.961 191.508H219.961C219.961 191.508 219.961 191.508 219.961 191.508C219.961 188.747 222.2 186.508 224.961 186.508C227.722 186.508 229.961 188.747 229.961 191.508C229.961 191.508 229.961 191.508 229.961 191.508H228.961Z" fill="#14D8D4" data-astro-cid-hpyyxts7=""/> <path class="pull-shape" style="--pull: -45%" fill-rule="evenodd" clip-rule="evenodd" d="M80.461 275.008C80.461 275.008 80.4609 275.008 80.4609 275.008C78.2518 275.008 76.4609 276.799 76.4609 279.008C76.4609 281.217 78.2518 283.008 80.4609 283.008C80.4609 283.008 80.461 283.008 80.461 283.008L80.461 284.008C80.461 284.008 80.4609 284.008 80.4609 284.008C77.6995 284.008 75.4609 281.77 75.4609 279.008C75.4609 276.247 77.6995 274.008 80.4609 274.008C80.4609 274.008 80.461 274.008 80.461 274.008L80.461 275.008Z" fill="#14D8D4" data-astro-cid-hpyyxts7=""/> <path d="M82.254 103.741C88.3582 109.845 98.3226 109.792 104.51 103.605C110.698 97.4171 110.751 87.4527 104.647 81.3485L35.0744 11.7762C28.9702 5.67197 19.0058 5.72517 12.8183 11.9127C6.63073 18.1002 6.57753 28.0646 12.6817 34.1688L82.254 103.741Z" stroke="#14D8D4" data-astro-cid-hpyyxts7=""/> <g class="pull-shape" style="--pull: -35%" data-astro-cid-hpyyxts7=""> <rect x="199.449" y="177.997" width="64.977" height="64.977" transform="rotate(-180 199.449 177.997)" stroke="#14D8D4" data-astro-cid-hpyyxts7=""/> <rect x="186.253" y="164.801" width="38.5862" height="38.5862" transform="rotate(-180 186.253 164.801)" stroke="#14D8D4" data-astro-cid-hpyyxts7=""/> </g> <mask id="path-10-inside-2_307_351" fill="white" data-astro-cid-hpyyxts7=""> <path fill-rule="evenodd" clip-rule="evenodd" d="M282.56 257.531H215.924V273.926H282.56V257.531ZM282.56 276.625H215.924V291.67H282.56V276.625ZM215.924 309.414V294.369H282.56V309.414H215.924ZM215.924 312.113V327.159H282.56V312.113H215.924ZM215.924 344.903V329.857H282.56V344.903H215.924ZM215.924 347.602V362.647H282.56V347.602H215.924ZM215.924 380.391L215.924 365.346H282.56V380.391H215.924ZM215.924 383.09V399.485H282.56V383.09H215.924Z" data-astro-cid-hpyyxts7=""/> </mask> <path class="pull-shape" style="--pull: -15%" d="M215.924 257.531V256.531H214.924V257.531H215.924ZM282.56 257.531H283.56V256.531H282.56V257.531ZM215.924 273.926H214.924V274.926H215.924V273.926ZM282.56 273.926V274.926H283.56V273.926H282.56ZM215.924 276.625V275.625H214.924V276.625H215.924ZM282.56 276.625H283.56V275.625H282.56V276.625ZM215.924 291.67H214.924V292.67H215.924V291.67ZM282.56 291.67V292.67H283.56V291.67H282.56ZM215.924 294.369V293.369H214.924V294.369H215.924ZM215.924 309.414H214.924V310.414H215.924V309.414ZM282.56 294.369H283.56V293.369H282.56V294.369ZM282.56 309.414V310.414H283.56V309.414H282.56ZM215.924 327.159H214.924V328.159H215.924V327.159ZM215.924 312.113V311.113H214.924V312.113H215.924ZM282.56 327.159V328.159H283.56V327.159H282.56ZM282.56 312.113H283.56V311.113H282.56V312.113ZM215.924 329.857V328.857H214.924V329.857H215.924ZM215.924 344.903H214.924V345.903H215.924V344.903ZM282.56 329.857H283.56V328.857H282.56V329.857ZM282.56 344.903V345.903H283.56V344.903H282.56ZM215.924 362.647H214.924V363.647H215.924V362.647ZM215.924 347.602V346.602H214.924V347.602H215.924ZM282.56 362.647V363.647H283.56V362.647H282.56ZM282.56 347.602H283.56V346.602H282.56V347.602ZM215.924 365.346V364.346H214.924V365.346H215.924ZM215.924 380.391H214.924V381.391H215.924V380.391ZM282.56 365.346H283.56V364.346H282.56V365.346ZM282.56 380.391V381.391H283.56V380.391H282.56ZM215.924 383.09V382.09H214.924V383.09H215.924ZM215.924 399.485H214.924V400.485H215.924V399.485ZM282.56 399.485V400.485H283.56V399.485H282.56ZM282.56 383.09H283.56V382.09H282.56V383.09ZM215.924 258.531H282.56V256.531H215.924V258.531ZM216.924 273.926V257.531H214.924V273.926H216.924ZM282.56 272.926H215.924V274.926H282.56V272.926ZM281.56 257.531V273.926H283.56V257.531H281.56ZM215.924 277.625H282.56V275.625H215.924V277.625ZM216.924 291.67V276.625H214.924V291.67H216.924ZM282.56 290.67H215.924V292.67H282.56V290.67ZM281.56 276.625V291.67H283.56V276.625H281.56ZM214.924 294.369V309.414H216.924V294.369H214.924ZM282.56 293.369H215.924V295.369H282.56V293.369ZM283.56 309.414V294.369H281.56V309.414H283.56ZM215.924 310.414H282.56V308.414H215.924V310.414ZM216.924 327.159V312.113H214.924V327.159H216.924ZM282.56 326.159H215.924V328.159H282.56V326.159ZM281.56 312.113V327.159H283.56V312.113H281.56ZM215.924 313.113H282.56V311.113H215.924V313.113ZM214.924 329.857V344.903H216.924V329.857H214.924ZM282.56 328.857H215.924V330.857H282.56V328.857ZM283.56 344.903V329.857H281.56V344.903H283.56ZM215.924 345.903H282.56V343.903H215.924V345.903ZM216.924 362.647V347.602H214.924V362.647H216.924ZM282.56 361.647H215.924V363.647H282.56V361.647ZM281.56 347.602V362.647H283.56V347.602H281.56ZM215.924 348.602H282.56V346.602H215.924V348.602ZM214.924 365.346L214.924 380.391H216.924L216.924 365.346H214.924ZM282.56 364.346H215.924V366.346H282.56V364.346ZM283.56 380.391V365.346H281.56V380.391H283.56ZM215.924 381.391H282.56V379.391H215.924V381.391ZM214.924 383.09V399.485H216.924V383.09H214.924ZM215.924 400.485H282.56V398.485H215.924V400.485ZM283.56 399.485V383.09H281.56V399.485H283.56ZM282.56 382.09H215.924V384.09H282.56V382.09Z" fill="#14D8D4" mask="url(#path-10-inside-2_307_351)" data-astro-cid-hpyyxts7=""/> </svg>