<svg xmlns="http://www.w3.org/2000/svg" width="123" height="50" viewBox="0 0 123 50" fill="none">
<path d="M28.165 49.3342V36.8408L28.4255 36.5801H31.0282L31.2886 36.8408V49.3342L31.0282 49.5949H28.4255L28.165 49.3342Z" fill="#0CBDBA"/>
<path d="M28.165 12.7533V0.260532L28.4255 0H31.0282L31.2886 0.260532V12.7533L31.0282 13.0138H28.4255L28.165 12.7533Z" fill="#0CBDBA"/>
<path d="M16.8507 40.3273H16.4827L14.6426 38.4863V38.1182L18.9395 33.8223L20.888 33.8232L21.1495 34.0827V36.0314L16.8507 40.3273Z" fill="#0CBDBA"/>
<path d="M16.8488 9.26758H16.4807L14.6406 11.1086V11.4766L18.9376 15.7727L20.8861 15.7718L21.1475 15.5121V13.5636L16.8488 9.26758Z" fill="#0CBDBA"/>
<path d="M0.442173 23.2363H18.141L18.4016 23.4969V26.0994L18.141 26.3601H0.442173L0.181641 26.0994V23.4969L0.442173 23.2363Z" fill="#0CBDBA"/>
<path d="M105.263 23.2363H121.921L122.182 23.4969V26.0994L121.921 26.3601H104.223L103.962 26.0994L105.002 23.4969L105.263 23.2363Z" fill="#0CBDBA"/>
<path d="M50.7098 25.908L50.4494 26.1687H42.3755L42.1151 26.4291C42.1151 26.9502 42.6362 28.5124 44.7195 28.5124C45.501 28.5124 46.2816 28.2519 46.5423 27.7308L46.8027 27.4704H49.9283L50.1887 27.7308C49.9283 29.2932 48.6265 31.6379 44.7195 31.6379C40.2922 31.6379 38.208 28.5124 38.208 24.8667C38.208 21.2212 40.2913 18.0957 44.4588 18.0957C48.6265 18.0957 50.7098 21.2212 50.7098 24.8667V25.9089V25.908ZM46.8027 23.3036C46.8027 23.0431 46.5423 21.2203 44.4588 21.2203C42.3755 21.2203 42.1151 23.0431 42.1151 23.3036L42.3755 23.5641H46.5423L46.8027 23.3036Z" fill="#014847"/>
<path d="M58.0023 27.4711C58.0023 27.992 58.2628 28.2527 58.7839 28.2527H61.1276L61.3883 28.5131V31.1175L61.1276 31.3782H58.7839C56.4399 31.3782 54.3567 30.336 54.3567 27.4711V21.7412L54.096 21.4806H52.2734L52.0127 21.2201V18.6157L52.2734 18.3552H54.096L54.3567 18.0947V15.7508L54.6171 15.4902H57.7426L58.003 15.7508V18.0947L58.2637 18.3552H61.1285L61.3892 18.6157V21.2201L61.1285 21.4806H58.2637L58.003 21.7412V27.4711H58.0023Z" fill="#014847"/>
<path d="M67.6391 31.3755H64.5136L64.2529 31.1148V13.4051L64.5136 13.1445H67.6391L67.8996 13.4051V31.1148L67.6391 31.3755Z" fill="#014847"/>
<path d="M74.6694 16.27H71.5439L71.2832 16.0095V13.4051L71.5439 13.1445H74.6694L74.9298 13.4051V16.0095L74.6694 16.27ZM74.6694 31.3755H71.5439L71.2832 31.1148V18.6139L71.5439 18.3534H74.6694L74.9298 18.6139V31.1148L74.6694 31.3755Z" fill="#014847"/>
<path d="M86.9107 13.4051V16.0095L86.65 16.27H84.3063C83.7852 16.27 83.5245 16.5306 83.5245 17.0516V18.0937L83.7852 18.3543H86.3896L86.65 18.6148V21.2192L86.3896 21.4797H83.7852L83.5245 21.7403V31.1158L83.2641 31.3762H80.1386L79.8781 31.1158V21.7403L79.6175 21.4797H77.7949L77.5342 21.2192V18.6148L77.7949 18.3543H79.6175L79.8781 18.0937V17.0516C79.8781 14.1867 81.9614 13.1445 84.3054 13.1445H86.6491L86.9098 13.4051H86.9107Z" fill="#014847"/>
<path d="M96.5465 31.6389C95.5043 34.2433 94.4632 35.8057 90.8166 35.8057H89.5139L89.2535 35.5451V32.9407L89.5139 32.6802H90.8166C92.1183 32.6802 92.3788 32.4196 92.6394 31.638V31.3776L88.4727 21.2204V18.616L88.7333 18.3555H91.077L91.3377 18.616L94.4632 27.4714H94.7237L97.8492 18.616L98.1096 18.3555H100.454L100.714 18.616V21.2204L96.5475 31.638L96.5465 31.6389Z" fill="#014847"/>
<path d="M32.457 31.3776L32.1966 31.1169L32.1983 23.5707C32.1983 22.2689 31.6865 21.2596 30.115 21.2268C29.307 21.2058 28.3825 21.225 27.3948 21.2669L27.2473 21.4181L27.2492 31.1169L26.9885 31.3776H23.8641L23.6035 31.1169V18.4766L23.8641 18.2161L30.8956 18.1523C34.4183 18.1523 35.8439 20.5727 35.8439 23.3047V31.1169L35.5835 31.3776H32.457Z" fill="#014847"/>
</svg>