<svg xmlns="http://www.w3.org/2000/svg" fill="none" viewBox="0 0 828 244" height="244" width="828">
<g clip-path="url(#clip0_2199_3018)">
<path fill="black" d="M144.3 59.1998L161.8 28.7998C166.9 19.8998 163.9 8.49977 155 3.39977C146.1 -1.70023 134.7 1.29976 129.6 10.1998L112 40.5998C74.5999 28.7998 32.6999 44.0998 12.2999 79.4998C-0.700079 102 -2.30009 127.9 5.59991 150.6L37.9999 94.3998C45.3999 81.4998 57.4999 72.2998 71.8999 68.3998C86.2999 64.4998 101.3 66.4998 114.2 73.9998C140.8 89.3998 150 123.6 134.6 150.2C119.2 176.8 85.0999 186 58.3999 170.6L76.9999 138.4C85.8999 143.5 97.2999 140.5 102.4 131.6C107.5 122.7 104.5 111.3 95.5999 106.2C86.6999 101.1 75.2999 104.1 70.1999 113L10.9999 215.7C5.89992 224.6 8.89992 236 17.7999 241.1C26.6999 246.2 38.0999 243.2 43.1999 234.3L60.7999 203.9C98.1999 215.7 140.1 200.4 160.5 165C180.9 129.7 173.2 85.7998 144.3 59.1998Z"></path>
<path fill="black" d="M223 81.2998H251.8C268.5 81.2998 282.3 89.5998 282.3 108.8C282.3 128 268.5 136.4 251.8 136.4H239.9V163.3H223V81.2998ZM251.3 121.6C259.6 121.6 264.9 117.9 264.9 108.8C264.9 99.5998 259.4 96.1998 251.3 96.1998H239.9V121.6H251.3Z"></path>
<path fill="black" d="M307 81.2998H361.2V96.0998H323.9V114.9H356.8V129.4H323.9V148.4H362.9V163.2H307V81.2998Z"></path>
<path fill="black" d="M391.2 81.2998H408V148.4H445.1V163.2H391.2V81.2998Z"></path>
<path fill="black" d="M463.9 122.3C463.9 98.0998 482.7 80.2998 506.3 80.2998C529.9 80.2998 548.7 98.0998 548.7 122.3C548.7 146.5 529.9 164.3 506.3 164.3C482.7 164.3 463.9 146.5 463.9 122.3ZM531.3 122.3C531.3 107 521.2 95.2998 506.3 95.2998C491.4 95.2998 481.3 107 481.3 122.3C481.3 137.6 491.4 149.3 506.3 149.3C521.2 149.3 531.3 137.6 531.3 122.3Z"></path>
<path fill="black" d="M590.2 96.0998H566.8V81.2998H630.4V96.0998H607V163.2H590.1V96.0998H590.2Z"></path>
<path fill="black" d="M648.4 122.3C648.4 98.0998 667.2 80.2998 690.8 80.2998C714.4 80.2998 733.2 98.0998 733.2 122.3C733.2 146.5 714.4 164.3 690.8 164.3C667.2 164.3 648.4 146.5 648.4 122.3ZM715.8 122.3C715.8 107 705.7 95.2998 690.8 95.2998C675.9 95.2998 665.8 107 665.8 122.3C665.8 137.6 675.9 149.3 690.8 149.3C705.7 149.3 715.8 137.6 715.8 122.3Z"></path>
<path fill="black" d="M784.6 125.2C780.5 121.3 774.8 114 774.8 114C774.8 114 776 123 776 128.9V163.2H760.2V80.5996H761.9L803.2 119.4C807.2 123.1 812.8 130.6 812.8 130.6C812.8 130.6 811.7 121.3 811.7 115.7V81.3996H827.5V164H825.8L784.6 125.2Z"></path>
</g>
<defs>
<clipPath id="clip0_2199_3018">
<rect fill="white" height="244" width="828"></rect>
</clipPath>
</defs>
</svg>
