<svg xmlns="http://www.w3.org/2000/svg" fill="none" viewBox="0 0 423 118" height="118" width="423">
<g clip-path="url(#clip0_2199_2977)">
<path fill="#050505" d="M71.7922 0.291847C72.0424 0.342928 72.0424 0.342928 72.2977 0.39504C73.2354 0.605561 74.1689 0.82955 75.1012 1.0625C75.3248 1.1179 75.5484 1.17326 75.7721 1.22856C76.3815 1.37944 76.9908 1.53107 77.6 1.68283C78.2589 1.84683 78.918 2.01012 79.577 2.17351C80.8656 2.49309 82.1541 2.81333 83.4425 3.1338C84.489 3.3941 85.5356 3.65416 86.5822 3.91406C86.7314 3.95109 86.8805 3.98812 87.0342 4.02628C87.3371 4.10151 87.6401 4.17674 87.9431 4.25197C90.7801 4.95645 93.6169 5.66167 96.4536 6.36715C98.8894 6.9729 101.325 7.57802 103.762 8.18268C106.591 8.88503 109.421 9.58777 112.25 10.2911C112.552 10.366 112.853 10.4409 113.154 10.5158C113.377 10.5711 113.377 10.5711 113.604 10.6275C114.65 10.8877 115.697 11.1475 116.743 11.4072C118.017 11.7233 119.291 12.0398 120.564 12.3568C121.214 12.5187 121.864 12.6803 122.514 12.8415C123.218 13.0157 123.921 13.1909 124.623 13.3662C124.831 13.4176 125.039 13.4689 125.253 13.5217C125.44 13.5685 125.626 13.6152 125.819 13.6634C126.063 13.7239 126.063 13.7239 126.311 13.7857C126.676 13.8924 126.676 13.8924 126.848 14.0639C126.865 14.4482 126.87 14.833 126.87 15.2176C126.87 15.3402 126.87 15.4629 126.871 15.5892C126.871 16.0054 126.871 16.4215 126.87 16.8377C126.87 17.1369 126.871 17.4362 126.871 17.7355C126.872 18.562 126.871 19.3884 126.871 20.2149C126.87 21.1046 126.871 21.9943 126.872 22.884C126.872 24.6286 126.872 26.3732 126.872 28.1177C126.871 29.5349 126.871 30.952 126.871 32.3692C126.871 32.6711 126.871 32.6711 126.871 32.9791C126.871 33.388 126.872 33.7968 126.872 34.2056C126.872 38.0441 126.872 41.8825 126.871 45.721C126.87 49.0184 126.87 52.3159 126.871 55.6134C126.872 59.4376 126.872 63.2618 126.872 67.086C126.871 67.4934 126.871 67.9007 126.871 68.3081C126.871 68.5086 126.871 68.709 126.871 68.9156C126.871 70.3319 126.871 71.7483 126.872 73.1646C126.872 74.8894 126.872 76.6142 126.871 78.3389C126.871 79.2198 126.871 80.1008 126.871 80.9817C126.872 81.7867 126.871 82.5918 126.87 83.3969C126.87 83.6895 126.87 83.982 126.871 84.2746C126.871 84.6697 126.871 85.0647 126.87 85.4597C126.87 85.6799 126.87 85.9002 126.87 86.1271C126.848 86.6134 126.848 86.6134 126.676 86.7849C126.387 86.8347 126.097 86.8742 125.807 86.9097C125.618 86.933 125.43 86.9563 125.236 86.9804C125.028 87.0054 124.819 87.0305 124.605 87.0563C124.387 87.083 124.169 87.1098 123.944 87.1374C123.344 87.2111 122.745 87.2838 122.145 87.3564C121.518 87.4324 120.891 87.5091 120.265 87.5858C119.212 87.7144 118.159 87.8425 117.106 87.9703C115.887 88.118 114.669 88.2665 113.451 88.4154C112.156 88.5738 110.861 88.7316 109.566 88.8893C109.192 88.9348 108.818 88.9805 108.444 89.0261C107.748 89.1111 107.052 89.1955 106.356 89.2799C106.148 89.3053 105.94 89.3307 105.726 89.3568C105.537 89.3797 105.348 89.4025 105.153 89.426C104.988 89.4461 104.823 89.4661 104.654 89.4867C104.24 89.5291 104.24 89.5291 103.722 89.5291C103.375 88.0879 103.071 86.6466 102.816 85.1867C102.762 84.8862 102.762 84.8862 102.708 84.5797C102.611 84.0307 102.514 83.4817 102.417 82.9327C102.313 82.3379 102.207 81.7432 102.102 81.1485C101.92 80.1204 101.738 79.0921 101.557 78.0639C101.295 76.5765 101.032 75.0892 100.768 73.6019C100.341 71.1873 99.9145 68.7727 99.4881 66.358C99.0744 64.0154 98.6607 61.6728 98.2466 59.3302C98.2211 59.1857 98.1956 59.0412 98.1692 58.8923C97.8905 57.3149 97.6116 55.7375 97.3327 54.1601C97.3082 54.0215 97.2837 53.883 97.2584 53.7402C97.1605 53.1864 97.0625 52.6326 96.9646 52.0788C96.6779 50.4578 96.3914 48.8367 96.1053 47.2156C95.926 46.2001 95.7466 45.1845 95.567 44.1691C95.4634 43.583 95.3599 42.9969 95.2566 42.4108C95.1447 41.7761 95.0325 41.1414 94.9202 40.5068C94.8875 40.3208 94.8547 40.1348 94.821 39.9431C94.7909 39.7735 94.7609 39.6038 94.7299 39.429C94.704 39.2825 94.6781 39.136 94.6515 38.9851C94.5812 38.6205 94.4974 38.2631 94.4027 37.9041C94.2895 37.956 94.1763 38.008 94.0597 38.0615C93.5487 38.2955 93.0373 38.5286 92.5259 38.7616C92.3477 38.8434 92.1695 38.9252 91.9859 39.0095C91.8157 39.0869 91.6455 39.1643 91.4702 39.244C91.3129 39.3158 91.1557 39.3877 90.9936 39.4617C90.6059 39.6192 90.6059 39.6192 90.2607 39.6192C90.2908 39.8725 90.2908 39.8725 90.3215 40.131C90.6014 42.5358 90.8136 44.9457 91.0253 47.3572C91.0661 47.8192 91.107 48.2813 91.1479 48.7433C91.2467 49.8603 91.3451 50.9772 91.4433 52.0942C91.5231 53.0018 91.6031 53.9094 91.6832 54.817C91.6946 54.9467 91.7061 55.0765 91.7179 55.2102C91.7411 55.4739 91.7644 55.7376 91.7877 56.0012C92.005 58.4642 92.2218 60.9272 92.4385 63.3902C92.6244 65.5026 92.8107 67.615 92.9972 69.7274C93.2143 72.1857 93.4311 74.6441 93.6476 77.1025C93.6707 77.3644 93.6937 77.6264 93.7168 77.8883C93.7281 78.0172 93.7395 78.1461 93.7512 78.2788C93.8311 79.1863 93.9112 80.0937 93.9914 81.0011C94.0889 82.1054 94.1862 83.2098 94.2831 84.3141C94.3326 84.8773 94.3822 85.4405 94.4321 86.0037C94.486 86.6138 94.5396 87.224 94.593 87.8341C94.6089 88.0124 94.6247 88.1906 94.6411 88.3743C94.6553 88.5378 94.6695 88.7013 94.6842 88.8698C94.6966 89.0105 94.709 89.1513 94.7217 89.2963C94.749 89.718 94.7524 90.1357 94.7479 90.5581C93.473 90.8331 92.1989 91.0204 90.9043 91.1763C90.6998 91.2014 90.4953 91.2266 90.2846 91.2525C89.7292 91.3206 89.1737 91.3882 88.6182 91.4554C88.0348 91.5262 87.4515 91.5976 86.8682 91.669C85.8902 91.7885 84.9122 91.9075 83.9341 92.0262C82.8041 92.1633 81.6741 92.3012 80.5442 92.4395C79.4545 92.5729 78.3648 92.7058 77.275 92.8384C76.8122 92.8947 76.3493 92.9512 75.8865 93.0079C75.2413 93.0867 74.5961 93.165 73.9508 93.2431C73.7591 93.2666 73.5674 93.2901 73.3699 93.3144C73.1943 93.3355 73.0187 93.3567 72.8377 93.3785C72.6853 93.397 72.5329 93.4155 72.3759 93.4346C71.967 93.4738 71.967 93.4738 71.2767 93.4738C70.532 89.9286 69.901 86.3653 69.2736 82.7982C69.1275 81.9681 68.9807 81.1381 68.834 80.3081C68.5554 78.7307 68.2772 77.1533 67.9992 75.5758C67.5987 73.3028 67.1975 71.0299 66.7962 68.7571C66.7356 68.4138 66.675 68.0705 66.6144 67.7272C66.5845 67.5581 66.5547 67.389 66.5239 67.2148C66.3448 66.2004 66.1659 65.1859 65.9871 64.1714C65.45 61.1236 64.9119 58.076 64.3624 55.0304C64.2925 54.6429 64.2227 54.2555 64.153 53.868C64.1084 53.6206 64.0639 53.3733 64.0193 53.126C63.9871 52.9473 63.9871 52.9473 63.9543 52.7651C63.8508 52.1908 63.7469 51.6166 63.6421 51.0425C63.5302 50.4288 63.4193 49.815 63.3086 49.2012C63.2761 49.0248 63.2435 48.8483 63.21 48.6666C63.0673 47.8702 62.9524 47.1211 62.9927 46.3081C62.5288 46.4974 62.065 46.6868 61.6012 46.8763C61.4714 46.9292 61.3416 46.9822 61.2079 47.0367C61.0794 47.0892 60.9509 47.1417 60.8186 47.1958C60.702 47.2434 60.5854 47.291 60.4653 47.3401C59.9254 47.564 59.3883 47.794 58.8507 48.0232C58.9734 50.4314 59.1783 52.8304 59.3914 55.2321C59.4289 55.6577 59.4663 56.0834 59.5037 56.5091C59.5838 57.4198 59.6641 58.3304 59.7447 59.2411C59.8612 60.558 59.9772 61.875 60.0931 63.192C60.2812 65.33 60.4697 67.468 60.6585 69.606C60.8416 71.6801 61.0246 73.7541 61.2074 75.8282C61.2244 76.0204 61.2244 76.0204 61.2416 76.2165C61.3649 77.6147 61.4881 79.013 61.6113 80.4113C61.6221 80.534 61.6329 80.6567 61.644 80.7832C61.6872 81.2737 61.7304 81.7643 61.7736 82.2548C61.9001 83.6907 62.0267 85.1266 62.1535 86.5625C62.2422 87.5669 62.3308 88.5713 62.4193 89.5757C62.4557 89.9884 62.4921 90.4012 62.5286 90.814C62.5783 91.3751 62.6277 91.9363 62.6771 92.4974C62.6918 92.6626 62.7064 92.8278 62.7215 92.998C62.7347 93.1474 62.7478 93.2968 62.7613 93.4508C62.7727 93.5804 62.7842 93.71 62.796 93.8435C62.8201 94.1599 62.8201 94.1599 62.8201 94.5029C60.1803 94.8883 57.5368 95.2318 54.8887 95.5554C54.4871 95.6047 54.0854 95.6539 53.6837 95.7032C52.85 95.8053 52.0162 95.9072 51.1824 96.0089C50.1159 96.139 49.0496 96.2702 47.9834 96.4016C47.1574 96.5033 46.3314 96.6042 45.5053 96.7048C45.1119 96.7529 44.7186 96.8013 44.3252 96.8499C43.7771 96.9176 43.2289 96.9842 42.6807 97.0506C42.44 97.0806 42.44 97.0806 42.1946 97.1113C41.2959 97.2188 40.4267 97.2663 39.5215 97.2471C38.654 92.7466 37.8536 88.2348 37.0567 83.7215C36.8759 82.6978 36.6947 81.6742 36.5136 80.6506C36.1723 78.7216 35.8313 76.7926 35.4905 74.8636C35.1017 72.6635 34.7126 70.4634 34.3235 68.2633C33.5245 63.7464 32.726 59.2293 31.9278 54.7122C31.3636 54.7122 31.0796 54.8274 30.5667 55.0499C30.3239 55.1543 30.3239 55.1543 30.0763 55.2609C29.9077 55.3345 29.7392 55.4081 29.5656 55.484C29.3098 55.5944 29.3098 55.5944 29.0489 55.7071C28.6275 55.8892 28.2065 56.0721 27.7858 56.2558C27.8045 56.4682 27.8232 56.6806 27.8424 56.8994C28.2856 61.9389 28.7285 66.9784 29.171 72.018C29.2254 72.638 29.2798 73.258 29.3343 73.878C29.3451 74.0015 29.356 74.1249 29.3671 74.2521C29.5427 76.2519 29.7185 78.2516 29.8944 80.2514C30.0749 82.3027 30.255 84.354 30.435 86.4053C30.5362 87.5577 30.6374 88.7102 30.7389 89.8626C30.8343 90.9466 30.9295 92.0305 31.0244 93.1145C31.0594 93.513 31.0945 93.9116 31.1296 94.3101C31.1775 94.8528 31.2251 95.3956 31.2725 95.9384C31.2866 96.0972 31.3007 96.2561 31.3152 96.4197C31.3278 96.5651 31.3405 96.7104 31.3535 96.8602C31.3645 96.9855 31.3755 97.1108 31.3868 97.2399C31.4097 97.5846 31.4101 97.9306 31.4101 98.2762C29.9817 98.5908 28.5431 98.7805 27.0921 98.9589C26.8452 98.9895 26.5982 99.0202 26.3512 99.0509C25.8371 99.1146 25.3229 99.1778 24.8087 99.2407C24.1508 99.3212 23.4933 99.4036 22.8357 99.4864C22.3273 99.5502 21.8186 99.6127 21.31 99.6749C21.0674 99.7047 20.8248 99.735 20.5824 99.7658C20.244 99.8086 19.9053 99.8494 19.5667 99.8902C19.2785 99.9258 19.2785 99.9258 18.9844 99.9621C18.4838 99.9903 18.0871 99.9425 17.6035 99.8198C17.5637 99.6684 17.5239 99.517 17.483 99.361C15.4606 91.6624 13.435 83.9647 11.4013 76.2691C11.3547 76.0927 11.3081 75.9163 11.26 75.7346C9.76968 70.0953 8.2746 64.4573 6.77707 58.8199C5.82973 55.2536 4.88444 51.6867 3.94449 48.1184C3.87949 47.8716 3.87949 47.8716 3.81317 47.6199C3.39781 46.043 2.9827 44.466 2.56816 42.8889C2.41851 42.3196 2.26874 41.7504 2.11895 41.1812C2.01285 40.7778 1.90695 40.3742 1.80106 39.9707C1.48384 38.7639 1.16223 37.5586 0.827302 36.3565C0.769315 36.1473 0.71133 35.9381 0.651586 35.7226C0.544704 35.3388 0.436594 34.9554 0.326998 34.5724C0.28085 34.4066 0.2347 34.2409 0.187154 34.0702C0.146554 33.9275 0.105957 33.7848 0.0641266 33.6378C3.75206e-05 33.2732 3.48872e-05 33.2732 0.172617 32.7587C0.562474 32.5361 0.940567 32.3458 1.34834 32.1611C1.47042 32.1041 1.59251 32.0472 1.7183 31.9885C2.12272 31.8004 2.52829 31.615 2.93394 31.4295C3.21771 31.2982 3.50141 31.1668 3.78505 31.0352C5.82798 30.0899 7.87988 29.164 9.93365 28.2423C11.694 27.4512 13.4421 26.636 15.1873 25.8125C17.1713 24.8763 19.1613 23.9559 21.163 23.0576C23.1162 22.1809 25.0605 21.2874 26.9984 20.3777C29.2305 19.3301 31.4676 18.2942 33.7104 17.2693C34.99 16.6844 36.2687 16.0976 37.5475 15.5111C37.6898 15.4458 37.8321 15.3806 37.9787 15.3134C40.9223 13.9634 43.8638 12.6091 46.8049 11.2538C47.8698 10.7631 48.9347 10.2726 49.9998 9.78218C53.5481 8.14857 53.5481 8.14857 57.0952 6.51224C58.6311 5.80291 60.1676 5.09499 61.7051 4.38894C61.849 4.32282 61.9929 4.2567 62.1412 4.18858C62.8738 3.85213 63.6068 3.5165 64.3406 3.18246C65.5921 2.6121 66.84 2.03869 68.0731 1.4297C68.2605 1.33886 68.4478 1.24802 68.6409 1.15443C68.9741 0.99217 69.3055 0.826089 69.6343 0.655133C70.4068 0.283236 70.9409 0.116478 71.7922 0.291847Z"></path>
<path fill="#050505" d="M259.219 63.2878C266.053 63.2878 272.888 63.2878 279.929 63.2878C280.259 64.1617 280.557 64.9901 280.814 65.8806C280.864 66.0535 280.864 66.0535 280.915 66.2299C281.026 66.614 281.137 66.9984 281.247 67.3827C281.328 67.6629 281.409 67.9431 281.49 68.2232C281.711 68.9898 281.932 69.7566 282.152 70.5234C282.386 71.3363 282.621 72.1492 282.855 72.962C283.211 74.1976 283.567 75.4333 283.923 76.669C284.513 78.7203 285.105 80.7712 285.697 82.8219C286.208 84.5909 286.718 86.3601 287.228 88.1294C287.542 89.2172 287.855 90.3048 288.17 91.3924C288.467 92.4231 288.765 93.454 289.061 94.4851C289.171 94.8679 289.282 95.2506 289.393 95.6332C289.544 96.1572 289.695 96.6815 289.845 97.2058C289.913 97.4373 289.913 97.4373 289.981 97.6735C290.022 97.8143 290.062 97.955 290.103 98.1C290.138 98.2218 290.174 98.3436 290.21 98.4691C290.284 98.7907 290.284 98.7907 290.284 99.3053C290.683 99.3053 291.081 99.3053 291.492 99.3053C291.528 99.156 291.564 99.0067 291.601 98.853C292.137 96.6692 292.76 94.5123 293.386 92.3524C293.507 91.933 293.628 91.5135 293.749 91.0941C293.976 90.3081 294.202 89.5222 294.43 88.7363C294.886 87.1556 295.342 85.5745 295.797 83.9933C296.462 81.6829 297.128 79.3727 297.794 77.0626C298.175 75.7401 298.557 74.4175 298.937 73.0949C299.278 71.9125 299.619 70.7301 299.96 69.5479C300.138 68.9297 300.316 68.3116 300.494 67.6934C300.689 67.015 300.885 66.3368 301.081 65.6586C301.139 65.4568 301.197 65.255 301.256 65.0471C301.309 64.8643 301.362 64.6814 301.417 64.493C301.463 64.3338 301.509 64.1746 301.556 64.0105C301.674 63.6309 301.674 63.6309 301.847 63.2878C308.738 63.2878 315.629 63.2878 322.73 63.2878C322.73 81.1165 322.73 98.9451 322.73 117.314C318.629 117.314 314.528 117.314 310.304 117.314C310.304 103.787 310.304 90.2598 310.304 76.3227C309.962 76.3227 309.62 76.3227 309.268 76.3227C309.228 76.4863 309.189 76.6499 309.148 76.8185C308.717 78.5757 308.223 80.3083 307.7 82.0402C307.615 82.3244 307.529 82.6086 307.444 82.8928C307.263 83.497 307.081 84.1011 306.899 84.7051C306.609 85.6655 306.321 86.6261 306.032 87.5867C305.685 88.7436 305.337 89.9003 304.99 91.0571C304.208 93.6576 303.429 96.2591 302.651 98.8609C302.379 99.7686 302.108 100.676 301.836 101.584C301.097 104.052 300.36 106.521 299.626 108.991C299.395 109.768 299.163 110.546 298.932 111.323C298.713 112.056 298.496 112.789 298.278 113.522C298.178 113.861 298.077 114.2 297.976 114.539C297.854 114.95 297.732 115.362 297.61 115.773C297.556 115.953 297.503 116.132 297.448 116.317C297.401 116.473 297.355 116.629 297.307 116.791C297.187 117.142 297.187 117.142 297.015 117.314C296.634 117.33 296.252 117.334 295.87 117.333C295.751 117.333 295.631 117.334 295.508 117.334C295.111 117.333 294.714 117.332 294.317 117.331C294.043 117.33 293.768 117.33 293.494 117.33C292.77 117.329 292.046 117.328 291.323 117.326C290.585 117.324 289.847 117.323 289.109 117.322C287.66 117.321 286.21 117.318 284.761 117.314C283.917 114.729 283.155 112.122 282.403 109.509C282.229 108.901 282.053 108.294 281.878 107.687C281.841 107.561 281.805 107.435 281.767 107.305C281.692 107.044 281.617 106.784 281.542 106.524C281.425 106.12 281.308 105.716 281.192 105.313C280.244 102.031 279.291 98.7515 278.337 95.4716C278.193 94.9754 278.048 94.4791 277.904 93.9828C276.972 90.7736 276.038 87.5645 275.098 84.3574C274.985 83.9699 274.871 83.5825 274.758 83.195C274.448 82.136 274.137 81.077 273.826 80.0184C273.675 79.5066 273.525 78.9946 273.375 78.4827C273.294 78.21 273.294 78.21 273.212 77.9319C273.164 77.7682 273.116 77.6045 273.067 77.4359C273.025 77.2943 272.984 77.1527 272.941 77.0068C272.853 76.6657 272.853 76.6657 272.853 76.3227C272.398 76.3227 271.942 76.3227 271.472 76.3227C271.472 89.8498 271.472 103.377 271.472 117.314C267.429 117.314 263.385 117.314 259.219 117.314C259.219 99.4854 259.219 81.6567 259.219 63.2878Z"></path>
<path fill="#050505" d="M152.563 0.686035C181.242 0.686035 181.242 0.686035 186.217 3.43022C186.385 3.51954 186.553 3.60886 186.726 3.70089C189.06 5.04348 190.775 7.13073 192.084 9.43313C192.211 9.64869 192.211 9.64869 192.34 9.86861C194.339 13.5245 194.797 18.3144 193.638 22.2965C192.39 26.1439 189.811 29.1907 186.209 31.0777C184.365 31.9947 182.391 32.5012 180.349 32.7587C180.52 33.5228 180.52 33.5228 180.694 34.3023C183.883 34.3023 187.073 34.3023 190.359 34.3023C190.818 35.6501 191.277 36.9978 191.75 38.3864C192.878 41.6932 194.019 44.9952 195.185 48.2891C195.71 49.7748 196.227 51.2631 196.731 52.7559C196.784 52.9119 196.838 53.0679 196.892 53.2287C196.941 53.3728 196.989 53.5169 197.039 53.6654C197.082 53.7932 197.125 53.921 197.17 54.0527C197.262 54.3692 197.262 54.3692 197.262 54.7122C192.763 54.7122 188.263 54.7122 183.628 54.7122C182.164 50.4776 180.72 46.2369 179.293 41.99C179.162 41.6013 179.031 41.2127 178.9 40.824C178.692 40.2065 178.484 39.5888 178.277 38.971C178.2 38.7402 178.122 38.5096 178.044 38.2789C177.938 37.9618 177.831 37.6443 177.725 37.3269C177.635 37.0582 177.635 37.0582 177.543 36.7841C177.415 36.3605 177.415 36.3605 177.415 36.0174C173.314 36.0174 169.214 36.0174 164.989 36.0174C164.989 42.1867 164.989 48.356 164.989 54.7122C160.888 54.7122 156.788 54.7122 152.563 54.7122C152.563 36.8836 152.563 19.0549 152.563 0.686035ZM164.989 10.8052C164.989 15.6727 164.989 20.5402 164.989 25.5552C166.874 25.5658 166.874 25.5658 168.797 25.5767C169.383 25.5813 169.383 25.5813 169.981 25.5861C173.305 25.6017 176.922 25.6055 179.48 23.1742C180.916 21.6329 181.483 19.8673 181.427 17.7742C181.239 15.7828 180.473 13.9953 178.984 12.6222C176.166 10.4868 172.759 10.7386 169.411 10.7731C167.952 10.7837 166.493 10.7943 164.989 10.8052Z"></path>
<path fill="#050505" d="M264.501 5.33632C270.076 9.95515 272.911 16.5199 273.68 23.598C273.739 24.2796 273.747 24.9593 273.751 25.643C273.752 25.7944 273.753 25.9457 273.755 26.1017C273.794 32.4651 273.794 32.4651 273.198 35.1599C273.147 35.398 273.147 35.398 273.094 35.6409C272.128 39.9734 270.363 43.7573 267.503 47.1657C267.43 47.2535 267.356 47.3412 267.281 47.4316C263.106 52.3534 256.837 54.947 250.482 55.5162C243.224 55.9442 236.268 54.1541 230.736 49.3331C230.567 49.1838 230.399 49.0346 230.225 48.8808C230.039 48.718 230.039 48.718 229.85 48.5519C224.644 43.7002 222.528 36.2235 222.268 29.3443C222.046 20.9429 224.01 13.1117 229.88 6.86049C238.695 -2.12965 254.849 -2.37721 264.501 5.33632ZM242.133 12.1774C241.976 12.2638 241.818 12.3502 241.656 12.4393C239.741 13.569 238.388 15.0613 237.301 16.9797C237.185 17.1797 237.185 17.1797 237.066 17.3837C235.345 20.5449 234.954 24.2087 234.982 27.742C234.983 27.8835 234.983 28.0249 234.984 28.1706C235.01 33.0899 235.99 37.8352 239.545 41.5058C242.42 44.0468 245.711 44.8202 249.463 44.6286C252.294 44.3985 254.826 43.1792 256.803 41.1628C256.921 41.0509 257.039 40.9391 257.161 40.8238C259.028 38.9356 260.035 36.3317 260.6 33.7878C260.628 33.6627 260.656 33.5377 260.685 33.4088C261.89 27.7074 261.394 21.1948 258.356 16.1221C257.939 15.5014 257.49 14.9498 256.975 14.407C256.852 14.2755 256.729 14.1439 256.602 14.0084C254.322 11.7766 251.225 10.8434 248.087 10.7624C245.985 10.7825 243.986 11.1537 242.133 12.1774Z"></path>
<path fill="#050505" d="M174.643 62.4196C181.559 62.2279 188.27 64.148 193.407 68.8824C196.508 71.86 198.734 76.0166 199.333 80.2674C199.333 80.4938 199.333 80.7202 199.333 80.9535C195.175 80.9535 191.018 80.9535 186.734 80.9535C186.393 80.1611 186.051 79.3687 185.699 78.5523C184.042 76.0147 182.063 74.5026 179.076 73.773C175.746 73.0779 172.221 73.5267 169.304 75.2936C168.756 75.6639 168.249 76.0612 167.75 76.4942C167.597 76.6222 167.597 76.6222 167.441 76.7528C164.405 79.5005 163.153 84.0401 162.918 87.9855C162.689 93.2421 163.181 99.0576 166.843 103.184C166.971 103.319 167.1 103.454 167.233 103.593C167.347 103.716 167.461 103.838 167.579 103.965C169.184 105.533 171.425 106.47 173.618 106.852C173.949 106.91 173.949 106.91 174.287 106.97C177.997 107.335 181.765 106.697 184.699 104.313C186.765 102.421 187.469 99.9412 187.77 97.2471C184.125 97.2471 180.48 97.2471 176.725 97.2471C176.725 94.1908 176.725 91.1344 176.725 87.9855C184.356 87.9855 191.988 87.9855 199.851 87.9855C199.851 104.233 199.851 104.233 195.364 109.596C195.225 109.77 195.086 109.944 194.943 110.123C194.127 111.136 193.289 112.057 192.257 112.855C192.118 112.963 191.978 113.072 191.834 113.184C186.054 117.519 178.73 118.73 171.641 117.868C165.194 116.9 159.307 113.787 155.378 108.535C150.423 101.679 149.114 92.6676 150.422 84.4266C150.496 84.0105 150.578 83.597 150.665 83.1831C150.693 83.041 150.722 82.8989 150.752 82.7524C152.093 76.3116 155.59 70.4713 161.057 66.6758C161.61 66.3268 162.171 66.0031 162.745 65.689C162.85 65.6315 162.954 65.5741 163.062 65.5149C166.626 63.5801 170.583 62.5488 174.643 62.4196Z"></path>
<path fill="#050505" d="M219.412 63.2665C219.648 63.2674 219.648 63.2674 219.889 63.2683C220.054 63.2683 220.219 63.2683 220.389 63.2683C220.937 63.2684 221.485 63.2697 222.034 63.2711C222.412 63.2714 222.791 63.2716 223.17 63.2718C224.17 63.2725 225.17 63.2741 226.169 63.276C227.188 63.2778 228.207 63.2786 229.226 63.2794C231.228 63.2813 233.229 63.2842 235.23 63.2878C236.697 67.5423 238.15 71.8006 239.574 76.0696C240.399 78.5432 241.234 81.0128 242.084 83.4781C243.039 86.2467 243.981 89.0193 244.911 91.7963C244.97 91.9732 245.029 92.1501 245.09 92.3323C245.575 93.7807 246.06 95.2294 246.544 96.678C246.967 97.9416 247.389 99.205 247.812 100.468C247.901 100.732 247.901 100.732 247.991 101C249.055 104.175 250.138 107.344 251.231 110.509C253.351 116.655 253.351 116.655 253.351 117.314C248.966 117.314 244.581 117.314 240.062 117.314C239.249 114.788 238.439 112.271 237.693 109.727C237.556 109.261 237.418 108.795 237.279 108.33C237.191 108.03 237.103 107.731 237.015 107.432C236.954 107.225 236.954 107.225 236.891 107.015C236.737 106.487 236.611 106.032 236.611 105.48C230.118 105.48 223.626 105.48 216.936 105.48C216.822 105.989 216.708 106.498 216.591 107.023C216.493 107.379 216.392 107.734 216.285 108.088C216.227 108.282 216.169 108.476 216.109 108.675C216.047 108.88 215.985 109.084 215.922 109.294C215.857 109.508 215.793 109.722 215.727 109.942C215.558 110.505 215.388 111.068 215.217 111.631C215.078 112.092 214.94 112.552 214.801 113.013C214.515 113.965 214.228 114.917 213.941 115.868C213.89 116.036 213.839 116.204 213.787 116.377C213.691 116.691 213.589 117.003 213.485 117.314C209.042 117.314 204.6 117.314 200.023 117.314C202.45 109.877 202.45 109.877 203.453 106.895C203.511 106.723 203.569 106.551 203.628 106.373C204.443 103.947 205.27 101.524 206.106 99.1045C207.236 95.8343 208.331 92.5526 209.429 89.2718C211.774 82.2651 211.774 82.2651 212.935 78.9167C213.658 76.8315 214.362 74.7406 215.062 72.6479C215.133 72.4369 215.133 72.4369 215.205 72.2216C215.684 70.7891 216.163 69.3564 216.641 67.9233C216.82 67.3862 216.999 66.8493 217.179 66.3124C217.264 66.0585 217.348 65.8045 217.433 65.5505C217.549 65.2004 217.666 64.8506 217.783 64.5008C217.849 64.303 217.915 64.1052 217.983 63.9014C218.273 63.108 218.607 63.2678 219.412 63.2665ZM225.738 76.3227C225.243 77.566 224.863 78.8382 224.481 80.1194C224.41 80.3581 224.338 80.5967 224.267 80.8354C224.077 81.4695 223.887 82.1037 223.698 82.738C223.503 83.3913 223.307 84.0444 223.111 84.6976C222.879 85.4744 222.646 86.2512 222.414 87.0281C221.984 88.4674 221.552 89.9064 221.119 91.3447C220.987 91.7824 220.855 92.2201 220.724 92.6578C220.644 92.9219 220.564 93.186 220.484 93.45C220.377 93.8046 220.271 94.1594 220.164 94.5143C220.078 94.8007 220.078 94.8007 219.99 95.0929C219.855 95.5114 219.855 95.5114 219.87 95.875C224.426 95.875 228.983 95.875 233.677 95.875C232.235 90.9123 232.235 90.9123 230.769 85.9568C230.687 85.6824 230.605 85.408 230.523 85.1336C230.356 84.5764 230.189 84.0193 230.022 83.4622C229.809 82.7485 229.596 82.0346 229.383 81.3206C229.216 80.7621 229.049 80.2036 228.882 79.6451C228.803 79.3812 228.724 79.1173 228.645 78.8533C228.537 78.4909 228.428 78.1286 228.32 77.7663C228.228 77.4587 228.228 77.4587 228.134 77.1449C228 76.6797 228 76.6797 227.809 76.3227C227.126 76.3227 226.442 76.3227 225.738 76.3227Z"></path>
<path fill="#050505" d="M411.829 67.9152C415.125 70.9778 416.167 74.8691 416.442 79.2383C412.512 79.2383 408.582 79.2383 404.534 79.2383C404.306 78.5025 404.078 77.7668 403.843 77.0087C402.901 75.1365 401.691 74.1577 399.73 73.4069C396.848 72.5027 393.294 72.5933 390.554 73.9215C389.236 74.7234 388.452 75.664 387.912 77.0944C387.602 78.6617 387.86 79.8099 388.732 81.1357C391.066 84.0044 396.235 84.5308 399.626 85.2681C404.559 86.3475 409.269 87.8781 412.99 91.4157C413.111 91.5229 413.232 91.6301 413.356 91.7406C415.827 94.0143 417.04 97.4374 417.181 100.726C417.289 105.113 416.179 109.155 413.09 112.411C408.815 116.672 402.473 118.038 396.614 118.056C396.338 118.056 396.062 118.055 395.786 118.054C395.571 118.053 395.571 118.053 395.353 118.053C393.089 118.044 390.878 117.95 388.656 117.485C388.515 117.456 388.373 117.427 388.228 117.396C386.25 116.966 384.433 116.309 382.616 115.427C382.352 115.3 382.352 115.3 382.083 115.17C379.464 113.828 377.133 111.65 375.712 109.081C375.622 108.925 375.533 108.769 375.44 108.608C373.916 105.802 373.469 102.806 373.469 99.6482C377.398 99.6482 381.328 99.6482 385.377 99.6482C385.662 100.724 385.946 101.799 386.24 102.907C386.585 103.534 386.822 103.941 387.275 104.451C387.358 104.554 387.44 104.658 387.525 104.765C389.084 106.548 391.734 107.269 394.006 107.538C397.096 107.723 400.138 107.439 402.685 105.526C403.59 104.69 404.276 103.531 404.408 102.295C404.459 100.814 404.178 99.7839 403.224 98.6312C400.754 96.2194 396.586 95.6928 393.362 94.9075C393.116 94.8472 393.116 94.8472 392.864 94.7856C392.04 94.5841 391.216 94.3845 390.39 94.1892C385.245 92.9538 379.594 90.9067 376.575 86.2703C374.593 82.7368 374.311 78.4856 375.367 74.6075C376.114 72.1861 377.409 70.2551 379.164 68.4331C379.259 68.3276 379.354 68.2222 379.453 68.1135C387.32 59.6948 403.701 60.878 411.829 67.9152Z"></path>
<path fill="#050505" d="M331.186 63.2878C343.545 63.2878 355.903 63.2878 368.636 63.2878C368.636 66.6272 368.636 69.9665 368.636 73.407C360.378 73.407 352.12 73.407 343.612 73.407C343.612 77.3123 343.612 81.2177 343.612 85.2413C350.275 85.2413 356.939 85.2413 363.804 85.2413C363.804 88.5807 363.804 91.92 363.804 95.3605C357.141 95.3605 350.477 95.3605 343.612 95.3605C343.612 99.2658 343.612 103.171 343.612 107.195C351.87 107.195 360.128 107.195 368.636 107.195C368.636 110.534 368.636 113.873 368.636 117.314C356.278 117.314 343.919 117.314 331.186 117.314C331.186 99.4854 331.186 81.6567 331.186 63.2878Z"></path>
<path fill="#050505" d="M274.751 0.686035C288.135 0.686035 301.519 0.686035 315.308 0.686035C315.308 4.02537 315.308 7.3647 315.308 10.8052C310.638 10.8052 305.968 10.8052 301.157 10.8052C301.157 25.2945 301.157 39.7838 301.157 54.7122C297.113 54.7122 293.069 54.7122 288.903 54.7122C288.903 41.5813 288.903 28.4503 288.903 14.9215C292.106 13.3301 292.106 13.3301 293.196 13.0456C293.378 12.9951 293.378 12.9951 293.563 12.9436C294.485 12.6969 295.372 12.5654 296.324 12.5203C296.153 12.0109 295.983 11.5016 295.807 10.9767C285.384 10.8918 285.384 10.8918 274.751 10.8052C274.751 7.46589 274.751 4.12656 274.751 0.686035Z"></path>
<path fill="#050505" d="M126.848 95.189C126.848 102.434 126.848 109.678 126.848 117.142C124.518 116.95 124.518 116.95 123.731 116.821C123.55 116.792 123.37 116.763 123.183 116.733C122.897 116.685 122.897 116.685 122.604 116.637C122.395 116.603 122.187 116.569 121.972 116.534C121.398 116.441 120.825 116.347 120.252 116.253C119.632 116.151 119.011 116.05 118.391 115.949C116.897 115.706 115.404 115.461 113.911 115.215C113.348 115.123 112.785 115.031 112.222 114.938C109.741 114.531 107.259 114.123 104.778 113.714C104.173 113.614 103.567 113.514 102.962 113.415C102.736 113.377 102.736 113.377 102.506 113.339C100.061 112.936 97.6164 112.537 95.1713 112.138C92.6593 111.729 90.1477 111.317 87.6367 110.902C86.2274 110.669 84.8179 110.437 83.4078 110.209C82.2088 110.015 81.0103 109.818 79.8123 109.618C79.2009 109.515 78.5893 109.415 77.9771 109.317C77.3146 109.212 76.6532 109.1 75.9917 108.988C75.7967 108.958 75.6017 108.928 75.4008 108.897C75.2246 108.866 75.0485 108.835 74.867 108.803C74.7141 108.778 74.5612 108.753 74.4037 108.727C74.0379 108.567 74.0379 108.567 73.8219 108.164C73.6484 107.553 73.5353 106.938 73.4325 106.312C73.41 106.18 73.3875 106.048 73.3643 105.912C73.2931 105.493 73.2232 105.074 73.1534 104.654C73.1052 104.369 73.0569 104.084 73.0085 103.798C72.8902 103.101 72.7737 102.404 72.6572 101.706C75.3802 101.306 78.1082 100.958 80.8402 100.625C81.4384 100.552 82.0366 100.478 82.6348 100.405C83.935 100.245 85.2353 100.086 86.5356 99.9276C87.3489 99.8282 88.1621 99.7288 88.9754 99.6293C91.2325 99.3531 93.4896 99.0771 95.7468 98.8016C95.8905 98.7841 96.0341 98.7665 96.1822 98.7484C96.4733 98.7129 96.7645 98.6774 97.0557 98.6418C97.2002 98.6242 97.3447 98.6065 97.4936 98.5884C97.6383 98.5707 97.7829 98.553 97.932 98.5348C100.284 98.2477 102.636 97.9598 104.988 97.6715C107.409 97.3747 109.831 97.0786 112.252 96.783C113.609 96.6174 114.966 96.4515 116.323 96.285C117.476 96.1434 118.629 96.0025 119.783 95.8623C120.37 95.7908 120.958 95.719 121.546 95.6465C122.183 95.5681 122.821 95.4906 123.459 95.4134C123.643 95.3904 123.828 95.3674 124.019 95.3437C124.277 95.3128 124.277 95.3128 124.54 95.2813C124.687 95.2633 124.833 95.2454 124.985 95.2269C125.604 95.1783 126.227 95.189 126.848 95.189Z"></path>
<path fill="#050505" d="M203.13 0.686035C207.23 0.686035 211.331 0.686035 215.556 0.686035C215.556 18.5147 215.556 36.3433 215.556 54.7122C211.455 54.7122 207.355 54.7122 203.13 54.7122C203.13 36.8836 203.13 19.0549 203.13 0.686035Z"></path>
<path fill="#050505" d="M421.102 63.2878C421.875 63.6582 422.341 64.1333 422.827 64.8314C423.147 65.7831 423.138 66.708 422.72 67.6292C422.264 68.4377 421.632 68.8291 420.756 69.1192C419.66 69.2115 418.909 69.0577 417.995 68.4332C417.155 67.5559 417.071 66.813 417.084 65.6421C417.175 64.7624 417.632 64.3121 418.276 63.7488C419.159 63.1248 420.044 63.1887 421.102 63.2878ZM418.858 64.6599C418.977 64.6683 419.095 64.6767 419.217 64.6854C419.373 64.6982 419.528 64.711 419.689 64.7242C419.843 64.7362 419.997 64.7481 420.156 64.7604C420.584 64.8314 420.584 64.8314 421.102 65.1744C421.146 65.7026 421.17 66.0683 420.929 66.5465C421.169 66.9966 421.169 66.9966 421.447 67.4041C421.785 67.1241 421.948 66.9667 422.039 66.5318C422.041 65.8503 422.021 65.4444 421.673 64.8421C421.126 64.357 420.693 64.1795 419.969 64.0918C419.463 64.1563 419.25 64.3476 418.858 64.6599ZM418.685 64.6599C418.131 65.2339 418.023 65.7615 417.995 66.5465C418.227 67.0521 418.355 67.3257 418.858 67.5756C418.858 66.6134 418.858 65.6512 418.858 64.6599C418.801 64.6599 418.744 64.6599 418.685 64.6599ZM419.721 65.346C419.721 65.5724 419.721 65.7987 419.721 66.032C419.892 65.9754 420.063 65.9188 420.239 65.8605C420.182 65.6907 420.125 65.5209 420.066 65.346C419.952 65.346 419.838 65.346 419.721 65.346ZM419.721 66.7181C419.721 67.001 419.721 67.284 419.721 67.5756C419.436 67.5756 419.151 67.5756 418.858 67.5756C419.029 67.8614 419.029 67.8614 419.376 68.0901C419.846 68.1661 420.286 68.1661 420.756 68.0901C421.103 67.8614 421.103 67.8614 421.274 67.5756C421.139 67.5615 421.004 67.5473 420.864 67.5327C420.411 67.4041 420.411 67.4041 420.185 67.0504C420.126 66.8859 420.126 66.8859 420.066 66.7181C419.952 66.7181 419.838 66.7181 419.721 66.7181Z"></path>
</g>
<defs>
<clipPath id="clip0_2199_2977">
<rect fill="white" height="118" width="423"></rect>
</clipPath>
</defs>
</svg>
