<svg xmlns="http://www.w3.org/2000/svg" fill="none" viewBox="0 0 300 90" height="90" width="300">
<g clip-path="url(#clip0_2197_2943)">
<path fill="black" d="M43.2 33.9C43.2 39 39 43.2 33.9 43.2C28.8 43.2 24.6 39 24.6 33.9C24.6 28.8 28.8 24.6 33.9 24.6C39 24.6 43.2 28.8 43.2 33.9ZM33.9 46.8C28.8 46.8 24.6 51 24.6 56.1C24.6 61.2 28.8 65.4 33.9 65.4C39 65.4 43.2 61.2 43.2 56.1C43.2 51 39 46.8 33.9 46.8ZM90 45C90 69.9 69.9 90 45 90C20.1 90 0 69.9 0 45C0 20.1 20.1 0 45 0C69.9 0 90 20.1 90 45ZM78 45C78 26.7 63.3 12 45 12C26.7 12 12 26.7 12 45C12 63.3 26.7 78 45 78C63.3 78 78 63.3 78 45ZM56.1 46.8C51 46.8 46.8 51 46.8 56.1C46.8 61.2 51 65.4 56.1 65.4C61.2 65.4 65.4 61.2 65.4 56.1C65.4 51 61.2 46.8 56.1 46.8ZM56.1 24.6C51 24.6 46.8 28.8 46.8 33.9C46.8 39 51 43.2 56.1 43.2C61.2 43.2 65.4 39 65.4 33.9C65.4 28.8 61.2 24.6 56.1 24.6ZM210.9 17.7C211.2 17.7 211.5 18 211.8 18.3V27.9C211.8 28.5 211.2 28.8 210.9 28.8H195C194.4 28.8 194.1 28.2 194.1 27.9V18.6C194.1 18 194.7 17.7 195 17.7H210.9ZM210.6 31.2H180C179.7 31.2 179.1 31.5 179.1 32.1L175.2 47.1L174.9 48L170.1 32.1C170.1 31.8 169.5 31.2 169.2 31.2H157.2C156.9 31.2 156.3 31.5 156.3 32.1L151.8 47.1L151.5 48L151.2 47.1L149.4 39.6L147.6 32.1C147.6 31.8 147 31.2 146.7 31.2H122.7V18.3C122.7 18 122.1 17.4 121.5 17.7L106.5 22.5C105.9 22.5 105.6 22.8 105.6 23.4V31.5H101.7C101.4 31.5 100.8 31.8 100.8 32.4V43.8C100.8 44.1 101.1 44.7 101.7 44.7H105.6V58.8C105.6 68.7 111 73.2 120.9 73.2C125.1 73.2 129 72.3 131.7 70.8V58.8C131.7 58.2 131.1 57.9 130.8 58.2C129.3 58.8 127.8 59.1 126.6 59.1C123.9 59.1 122.4 57.9 122.4 54.9V44.7H131.1C131.4 44.7 132 44.4 132 43.8V34.2L143.4 72C143.4 72.3 144 72.9 144.3 72.9H156.9C157.2 72.9 157.8 72.6 157.8 72L163.2 55.2L165.9 63.9L168.3 72C168.3 72.3 168.9 72.9 169.2 72.9H181.8C182.1 72.9 182.7 72.6 182.7 72L194.1 34.2V72C194.1 72.3 194.4 72.9 195 72.9H210.3C210.6 72.9 211.2 72.6 211.2 72V32.1C211.2 31.8 210.9 31.2 210.6 31.2ZM230.7 17.7H215.4C215.1 17.7 214.5 18 214.5 18.6V71.7C214.5 72 214.8 72.6 215.4 72.6H230.7C231 72.6 231.6 72.3 231.6 71.7V18.3C231.6 18 231.3 17.7 230.7 17.7ZM251.1 17.7H235.2C234.9 17.7 234.3 18 234.3 18.6V27.9C234.3 28.2 234.6 28.8 235.2 28.8H251.1C251.4 28.8 252 28.5 252 27.9V18.3C252 18 251.7 17.7 251.1 17.7ZM250.8 31.2H235.5C235.2 31.2 234.6 31.5 234.6 32.1V71.4C234.6 71.7 234.9 72.3 235.5 72.3H250.8C251.1 72.3 251.7 72 251.7 71.4V32.1C251.7 31.8 251.4 31.2 250.8 31.2ZM299.1 51.6C299.1 63 289.5 72.9 276 72.9C262.8 72.9 253.2 63 253.2 51.6C253.2 40.2 262.8 30.3 276.3 30.3C289.5 30.3 299.1 40.2 299.1 51.6ZM282.9 51.9C282.9 47.7 279.9 44.4 276.3 44.7C272.4 44.7 269.7 48 269.7 51.9C269.7 55.8 272.7 59.1 276.3 59.1C280.2 59.1 282.9 55.8 282.9 51.9Z"></path>
</g>
<defs>
<clipPath id="clip0_2197_2943">
<rect fill="white" height="90" width="300"></rect>
</clipPath>
</defs>
</svg>
