<svg xmlns="http://www.w3.org/2000/svg" fill="none" viewBox="0 0 207 229" height="229" width="207">
<g clip-path="url(#clip0_2199_3010)">
<path fill="black" d="M83 223C85 223 88 223 90 219L88 207C87 196 92 185 96 185C100 185 103 188 103 193C104 208 99 214 97 219C97 221 101 224 104 224L107 223L106 220C106 211 112 204 116 204C120 204 122 209 122 212C122 216 119 219 114 222L118 224C125 224 128 216 131 208C131 207 132 205 134 205C137 205 138 223 143 223C145 223 146 219 146 216L145 210C145 206 148 203 150 203C152 203 152 205 152 207C152 214 147 228 139 228C133 228 133 218 131 218C129 218 126 229 114 229L108 226C105 228 103 228 100 228C96 228 94 224 92 224C90 224 88 229 81 229C75 229 74 221 72 221C70 221 67 229 64 229C59 229 58 215 54 215C50 215 40 229 37 228C35 228 35 227 35 226L37 218L40 209L42 207L43 209L46 215C47 215 53 204 56 204C60 204 60 221 66 221C68 221 69 219 70 216C70 212 71 206 75 206C77 206 79 211 77 216C77 222 81 223 83 223ZM178 209C177 215 172 224 166 224C164 224 161 224 161 222C161 220 172 220 172 212C172 209 169 205 165 205C160 205 154 211 154 219C154 226 159 229 163 229C171 229 176 222 178 217C180 220 180 229 183 229C185 229 185 228 187 225C190 217 194 208 199 208C200 208 199 211 204 211C206 211 207 209 207 207C207 205 205 202 201 202C190 202 187 219 185 219C182 219 183 206 181 206C179 206 178 208 178 209ZM99 197C99 193 98 192 97 192C94 192 93 199 94 207L95 213C97 213 100 204 99 197ZM80 190C80 188 78 186 76 186C74 186 72 189 72 192C72 194 74 195 76 195C78 195 80 192 80 190ZM117 214L115 210C114 210 111 211 111 215C111 218 112 219 113 220C116 219 117 216 117 214ZM163 210C166 210 167 213 166 215L160 219C159 217 159 210 163 210ZM27 201L25 196C24 192 27 189 28 189C31 188 31 189 32 192L33 208C33 217 28 229 16 229C5 229 1 222 0 212C0 207 0 202 2 195C3 191 4 190 8 189C10 189 10 192 9 195C8 202 7 205 8 213C8 222 12 225 17 225C23 225 26 220 27 212V201ZM167 47C168 53 177 61 179 61C181 61 181 53 181 47C181 43 182 41 180 40C177 46 169 47 167 47ZM167 44C174 44 180 39 180 34C180 32 179 30 176 30L177 32C177 36 172 39 166 39C164 39 163 41 163 42L167 44ZM166 37L163 36L162 32H165L172 30C174 30 174 31 174 32C174 35 169 37 166 37ZM25 86C27 86 27 73 30 73L31 75L30 85L31 86C32 86 35 72 37 72L38 74L35 88V89C37 89 40 82 41 78L43 76L44 78L38 95C36 99 33 105 33 108L35 114C31 113 30 113 28 110C21 123 41 122 34 134C33 132 23 130 23 117C23 106 33 100 33 95L32 93C30 91 30 90 28 90C27 90 25 93 27 95L28 97C28 99 25 104 23 104C21 104 20 99 20 91C20 84 21 77 23 77L24 78V83L25 86Z"></path>
<path fill="black" d="M41 105C44 105 46 103 46 99V92C46 90 46 87 48 85L47 88C47 93 50 97 50 102C50 104 50 105 48 105L47 104L46 105C46 107 47 109 50 109C52 109 54 107 54 104C54 99 49 92 49 86L51 80C51 93 61 102 61 107C61 109 60 110 59 110L57 108V107C56 107 55 108 55 110C55 112 57 114 60 114C64 114 66 111 66 109C66 102 53 92 53 81L54 74C46 80 43 87 43 93C43 98 43 101 40 101L38 100V101C38 104 39 105 41 105ZM150 42C153 42 155 41 155 40H154L148 39L143 37L142 38C142 39 146 42 150 42ZM136 34C137 33 141 34 145 32H147L151 34L155 33C157 33 160 39 160 41C160 45 155 47 149 47C141 47 136 39 136 35V34ZM42 129C40 129 37 132 37 138C37 144 43 153 54 153C64 153 66 147 66 143C66 133 60 126 52 126C48 126 44 130 44 134C44 138 48 144 55 144C59 144 61 142 61 139C61 136 58 132 54 132L52 134C52 136 55 137 57 137H58L59 138L55 140C52 140 49 138 49 134C49 132 51 130 54 130C59 130 63 135 63 140C63 144 60 147 55 147C45 147 40 138 42 129Z"></path>
<path fill="black" d="M109 153C109 154 110 156 112 156C112.796 156 113.559 155.684 114.121 155.121C114.684 154.559 115 153.796 115 153C115 152.204 114.684 151.441 114.121 150.879C113.559 150.316 112.796 150 112 150C110 150 109 152 109 153ZM114 166L118 165L119 166C119 168 116 169 110 169C107 169 105 168 105 166C102 168 97 170 92 170C79 170 76 164 72 162C69 161 64 164 57 156H60C66 156 69 154 69 149V147C71 148 75 151 76 156L80 158C83 158 85 157 86 153C93 152 99 148 100 142L106 147L110 146L117 147L118 146C120 146 120 148 120 149L122 151L121 153H120C119 153 119 162 113 162C109 162 106 159 104 155L102 153L99 154C96 158 90 161 83 161H79C79 162 81 163 85 163C97 163 99 157 101 157L102 158C105 164 111 166 114 166ZM152 125C151 125 144 135 139 135L137 131L140 130C150 127 148 119 157 119C162 119 168 122 168 130C168 139 156 149 154 149C153 149 151 147 151 145L153 144C159 141 162 136 162 133L161 132C160 132 156 142 150 142C147 142 143 139 143 138C143 135 154 130 154 127L152 125ZM159 122C158 122 157 122 157 124C157 126 159 127 160 127L162 128L165 126C165 124 162 122 159 122ZM42 49L44 51L47 49C47 47 45 46 44 46C43 46 42 47 42 49ZM38 43C38 44 39 45 41 45L43 43L41 40C39 40 38 42 38 43ZM36 60C35 61 32 62 32 65C32 68 33 69 35 69H38C36 67 36 65 36 63V60ZM21 61L20 62C20 65 22 67 24 67C26 67 28 66 29 64H27C25 64 22 63 21 61ZM18 67C18 71 20 74 22 74L30 70H24C22 70 20 70 18 67ZM35 41V38C35 35 34 30 30 30C27 30 25 32 25 34C25 39 30 41 35 41ZM29 57C27 57 25 55 25 52L27 50C27 53 29 55 31 56H32L29 57ZM35 50L37 51L35 53C33 53 31 50 31 48L33 47H34L35 50ZM20 57V58L21 59H22L28 60L33 59C38 57 40 51 40 50L38 48L37 45H33C31 45 29 45 26 47C20 50 21 56 20 57ZM41 55C40 57 38 59 38 62C38 66 40 68 44 68C47 68 48 66 48 63C48 59 44 56 41 55ZM28 43L24 44C21 44 19 42 19 39C19 37 20 35 22 34V35C22 39 24 42 28 43ZM139 64L141 66C143 66 144 65 144 64C144 62 143 61 141 61C140 61 139 62 139 64ZM139 72C139 72.7956 139.316 73.5587 139.879 74.1213C140.441 74.6839 141.204 75 142 75C142.796 75 143.559 74.6839 144.121 74.1213C144.684 73.5587 145 72.7956 145 72C145 71.2044 144.684 70.4413 144.121 69.8787C143.559 69.3161 142.796 69 142 69C141.204 69 140.441 69.3161 139.879 69.8787C139.316 70.4413 139 71.2044 139 72ZM130 77C130 78.1935 130.474 79.3381 131.318 80.182C132.162 81.0259 133.307 81.5 134.5 81.5C135.693 81.5 136.838 81.0259 137.682 80.182C138.526 79.3381 139 78.1935 139 77C139 75.8065 138.526 74.6619 137.682 73.818C136.838 72.9741 135.693 72.5 134.5 72.5C133.307 72.5 132.162 72.9741 131.318 73.818C130.474 74.6619 130 75.8065 130 77ZM132 68C132.274 68.4126 132.645 68.751 133.081 68.9851C133.518 69.2192 134.005 69.3417 134.5 69.3417C134.995 69.3417 135.482 69.2192 135.919 68.9851C136.355 68.751 136.726 68.4126 137 68L135 66C133 66 132 67 132 68ZM124 73C124.274 73.4126 124.645 73.751 125.081 73.9851C125.518 74.2192 126.005 74.3417 126.5 74.3417C126.995 74.3417 127.482 74.2192 127.919 73.9851C128.355 73.751 128.726 73.4126 129 73L127 71C125 71 124 72 124 73ZM131 58C131 61 132 63 135 63C137 63 139 61 139 58C139 56 137 54 135 54C132 54 131 56 131 58ZM135 51C135 51.663 135.263 52.2989 135.732 52.7678C136.201 53.2366 136.837 53.5 137.5 53.5C138.163 53.5 138.799 53.2366 139.268 52.7678C139.737 52.2989 140 51.663 140 51C140 50.337 139.737 49.7011 139.268 49.2322C138.799 48.7634 138.163 48.5 137.5 48.5C136.837 48.5 136.201 48.7634 135.732 49.2322C135.263 49.7011 135 50.337 135 51ZM124 57C124 57.663 124.263 58.2989 124.732 58.7678C125.201 59.2366 125.837 59.5 126.5 59.5C127.163 59.5 127.799 59.2366 128.268 58.7678C128.737 58.2989 129 57.663 129 57C129 56.337 128.737 55.7011 128.268 55.2322C127.799 54.7634 127.163 54.5 126.5 54.5C125.837 54.5 125.201 54.7634 124.732 55.2322C124.263 55.7011 124 56.337 124 57ZM124 65C124 67 125 69 127 69C129 69 131 67 131 65C131 63 129 61 127 61C125 61 124 63 124 65ZM116 69C116 71 117 73 119 73C121 73 123 71 123 69C123 67 121 65 119 65C117 65 116 67 116 69ZM118 60C118 62 119 63 120 63C122 63 123 62 123 60C123 59 122 58 120 58L118 60ZM140 80C140 78 141 77 142 77C142.663 77 143.299 77.2634 143.768 77.7322C144.237 78.2011 144.5 78.837 144.5 79.5C144.5 80.163 144.237 80.7989 143.768 81.2678C143.299 81.7366 142.663 82 142 82L140 80ZM141 152L142 153C142 155 142 157 139 158C138 159 136 160 132 160L133 155V154H134C139 154 141 152 141 152ZM142 146L143 144V142C143 141 140 140 136 140C131 140 129 142 129 143V145C129 147 132 148 135 148L142 146ZM145 146C144 148 140 151 133 151C130 151 128 149 128 149L126 151C124 153 123 156 123 160C123 162 124 165 128 165C140 165 149 157 149 151C149 148 147 146 145 146ZM147 93C147 95 148 97 150 97L152 93V87L155 89L158 87H159L157 91L161 93L155 94L152 97C152 99 154 99 155 99C160 99 163 97 163 97H164L162 101C162 102 166 103 165 104H162H161L160 108C159 108 157 100 152 100L151 102C151 104 154 107 156 109L159 110L155 112V116L151 113L148 115L150 107C150 105 150 102 148 102C147 102 145 104 144 107L143 113C142 113 143 110 141 110L138 111H137L139 108L135 106L138 105C141 104 146 102 146 99C146 95 143 93 140 92L138 90L140 89H142V86V85L145 88L148 85L149 86L147 93ZM117 75C118 80 125 78 125 84V88L126 90L128 88L127 86C127 83 129 83 130 83L138 85C137 89 128 88 128 93C128 95 131 95 132 95L134 94V92C136 92 142 97 142 98C142 100 135 101 133 101H132L134 98L130 97L128 98L131 104C131 105 130 106 128 106C126 106 124 104 124 102L126 98L125 97C122 97 122 103 113 104C115 102 116 101 116 98L115 95C115 93 116 92 118 92C120 92 121 95 123 95L124 93C124 88 115 89 115 82L117 75ZM129 116L131 118L133 116C133 114 131 112 130 112V114L129 116ZM126 108C133 109 136 114 136 118C136 122 134 125 131 125C128 125 125 122 125 119L127 111L126 108ZM118 118L119 120L118 123C118 125 119 126 121 126C123 126 124 125 124 123C124 121 121 118 118 118ZM139 114V116L138 121C138 124 140 125 142 125C145 125 146 123 146 121C146 117 143 115 139 114ZM119 111C122 111 123 112 123 113C123 115 122 115 120 115H117L113 116L116 118C116 122 105 119 105 128C105 133 111 139 118 139C122 139 125 137 125 136L123 135L124 133L123 132C122 132 120 134 115 134C112 134 108 132 108 129L109 128H110L111 127L112 125C113 125 116 129 124 129C127 129 133 129 135 127C135 134 129 143 118 143C106 143 100 133 100 125C100 115 108 106 119 106L124 108C124 110 120 109 119 111ZM78 39C83 39 84 43 84 47L83 51L82 48L81 46L80 51L81 54L83 53C82 56 80 59 77 59C72 59 70 52 69 48C66 52 62 55 57 55C52 55 49 51 49 47L51 43C53 43 51 49 54 49C55 49 57 48 57 46L58 42C58 40 58 39 56 39L53 41C55 36 59 34 63 34C68 34 70 38 70 43V45C72 42 75 39 78 39ZM74 46L73 45L71 48L72 51C73 51 74 49 74 46ZM65 49L68 46V44L67 41C65 41 64 46 64 48L65 49ZM75 55C77 55 79 49 79 45L78 43C77 43 75 49 75 53V55ZM60 51C62 51 64 40 64 38V37C62 37 59 48 59 50L60 51Z"></path>
<path fill="black" d="M67 56C64 56 64 59 64 66C62 61 58 57 55 57C52 57 51 59 51 62V64C51 63 52 62 54 62C56 62 60 64 62 67L55 66L52 67C50 68 47 70 47 74L48 77C50 72 56 69 59 69L61 70C59 71 59 74 59 77L57 78L59 84L58 86L61 92V93L65 97L66 98L69 96L68 95L66 91L65 90L64 85L63 83V78L62 77C62 74 64 73 65 70C68 73 69 76 69 78V82C71 80 75 78 75 74C75 72 74 70 67 68L74 67C79 67 81 68 81 71L83 67C83 64 80 62 77 62C73 62 70 64 66 67C68 63 69 61 71 61H72L67 56ZM173 101C176 101 179 105 179 110C179 115 176 121 172 125C172 116 161 119 161 113C161 110 163 108 166 108L170 110L169 106C169 104 170 101 173 101ZM126 37L123 36C120 36 118 38 118 39L117 37C117 34 119 31 124 31C128 31 129 33 130 33H132V34C132 37 131 41 128 43L125 40V39L126 37ZM117 41L121 44H124L123 47H125C129 47 133 45 133 39L134 43C134 50 129 53 125 53L120 52C118 52 119 54 118 54C116 54 115 51 115 47C115 45 115 43 117 41ZM63 1H58C54 1 55 4 51 4C48 4 49 0 45 0C42 0 40 1 40 2C40 2 43 2 43 4C43 6 37 7 37 8L38 9L43 8L45 9C45 11 41 14 41 15H42C43 15 45 12 47 12C51 12 48 19 50 19C52 19 51 12 54 12C56 12 58 17 59 17L60 16L58 11L60 9L64 10L65 9C65 8 60 6 60 4C60 2 63 2 63 1ZM77 8L83 11C84 11 85 10 85 8C85 7 84 6 82 6L77 8ZM84 20C84 17 74 10 74 7V6C76 4 83 3 83 1L81 0C75 0 66 2 66 5C66 7 74 12 74 14L73 15L64 13L63 15L66 25C65 25 59 19 57 19V24L56 26C54 26 53 21 52 21C50 21 50 30 48 30C47 30 48 21 46 21C44 21 42 27 41 27L40 26L41 19L40 18L32 21V20C32 19 39 14 39 12C39 10 29 11 29 9C29 7 36 5 36 3C36 1 28 0 25 0C21 0 19 0 19 2L28 5C28 7 19 10 19 12C19 14 31 13 31 14C31 17 20 26 20 29L22 30C25 30 33 24 36 24L37 26L36 32C36 33 36 34 38 34C40 34 42 30 44 30C46 30 45 42 48 42C50 42 51 29 53 29C55 29 56 33 57 33C59 33 58 26 60 26C63 26 69 34 72 34L73 32C73 29 68 22 68 19L69 18L82 22L84 20ZM26 17C26 18 22 22 20 22L19 21L20 17L25 16L26 17ZM73 23C73 25 81 36 82 36L84 32V31C83 29 75 23 73 23ZM174 4L176 6L177 4L176 2L174 4ZM164 18C164 13 153 12 153 11L162 9C157 3 151 4 151 3L160 1C164 1 168 2 168 5L167 10C167 12 167 13 169 13C171 13 171 11 171 9V5C171 2 173 0 176 0L181 1L179 5C179 7 181 9 181 15C181 25 171 28 160 28L150 27C150 26 154 26 154 22V18C155 18 157 21 160 21C161 21 164 21 164 18ZM174 12C174 17 170 21 163 23H165C174 23 177 19 177 16C177 14 176 12 174 12ZM170 93L174 84C172 83 167 81 167 77C167 73 172 69 173 69L174 71L173 78L175 82C176 82 179 78 179 74C179 68 173 66 171 66C170 66 167 68 159 68C146 68 143 55 143 49L149 50H156C164 50 167 55 172 62C175 64 181 66 181 74C181 81 174 85 172 93C175 93 177 87 180 87L182 91C182 93 180 97 177 100V99C177 97 177 95 175 95C171 95 170 98 169 101C167 95 164 89 160 85C155 82 148 84 148 77L149 71L148 69C154 71 152 75 156 79C158 82 165 85 169 96V94C169 85 156 75 155 72C162 72 164 74 167 84L170 93ZM168 62C168 61 165 61 165 57L164 56C163 56 164 59 162 59C159 59 158 53 157 53V56L156 58C154 58 153 54 151 54L152 57L148 59L149 60L154 59L155 60L153 63H154C155 63 158 60 161 60L162 61L160 65C161 65 163 62 165 62L168 63V62Z"></path>
<path fill="black" d="M121 25L123 28V29L126 26C127 26 131 30 136 30C144 30 151 24 151 15C151 6 144 0 135 0L126 2C125 3 124 0 123 0V2L122 5C120 5 114 0 114 2L118 9L114 12C114 13 119 13 119 15C119 17 114 18 114 20L119 21L115 28L116 29L121 25ZM123 14L121 11H124L126 8L127 11L130 10L131 11L129 13L133 15L129 16L130 19L127 18L125 21L124 20V18V17H121L123 14ZM136 26C131 26 128 24 128 23L129 22L135 24L134 20V19L140 20L141 19L136 14L142 11L135 10L136 7L135 6L130 7L129 6C129 5 132 3 135 3C142 3 145 8 145 15C145 24 139 26 136 26ZM93 135L92 137L89 135C82 135 85 145 78 145L73 144V145C73 146 75 150 82 150C88 150 94 146 94 141V139L95 138L98 139L100 138L98 136L99 134L97 132L96 133L94 131L92 132L93 135Z"></path>
<path fill="black" d="M76 138C74 138 71 136 71 134L73 133C74 133 77 135 77 137L76 138ZM58 123C63 125 66 127 66 131L69 138C70 139 73 141 76 141C78 141 80 140 80 138C80 136 77 131 73 131H71L69 130L66 122C64 119 61 118 58 118C56 118 54 119 54 121L58 123Z"></path>
<path fill="black" d="M90 116C90 113 84 113 84 109L86 104C87 107 88 109 91 110C97 112 97 115 97 118C97 124 93 131 83 131C75 131 69 124 69 118L71 114L73 116C75 118 79 119 83 119C87 119 90 117 90 116ZM90 120C88 121 87 121 87 123V126L88 127C90 127 94 123 94 120L93 119L90 120ZM70 88C70 84 80 82 80 77L79 74C82 76 85 79 85 81C85 86 80 88 80 90C80 94 85 94 85 98C85 101 80 105 80 109C80 112 83 115 86 115L83 116C76 116 70 111 70 104C70 101 71 99 73 97L78 99L79 98C79 96 70 93 70 88ZM34 120C34 122 36 123 38 123H40C41 125 42 126 45 126C47 125 49 123 48 121V120C51 119 52 117 52 115C52 113 50 111 48 111L46 112C45 110 43 109 41 109C39 109 37 111 37 114L38 115H37C35 115 33 117 34 120ZM45 117C45.1326 117.53 45.0491 118.092 44.7678 118.561C44.4865 119.03 44.0304 119.367 43.5 119.5C42.9696 119.633 42.4082 119.549 41.9393 119.268C41.4705 118.986 41.1326 118.53 41 118C40.8674 117.47 40.9509 116.908 41.2322 116.439C41.5135 115.97 41.9696 115.633 42.5 115.5C43.0304 115.367 43.5918 115.451 44.0607 115.732C44.5295 116.014 44.8674 116.47 45 117Z"></path>
</g>
<defs>
<clipPath id="clip0_2199_3010">
<rect fill="white" height="229" width="207"></rect>
</clipPath>
</defs>
</svg>
